<svg xmlns="http://www.w3.org/2000/svg" width="55" height="10" viewBox="0 0 55 10">
    <g data-name="그룹 3">
        <path data-name="패스 1" d="M99.46 480.435a3.172 3.172 0 0 0-.647-2.011 2.926 2.926 0 0 0-2.408-1.149 2.833 2.833 0 0 0-2.346 1.122 3.228 3.228 0 0 0 .123 4.133 2.835 2.835 0 0 0 2.26.95 3.281 3.281 0 0 0 1.167-.2 2.94 2.94 0 0 0 .934-.575 3.328 3.328 0 0 0 .721-.994l.041-.083-.777-.415-.046.077a3.368 3.368 0 0 1-.61.792 2.191 2.191 0 0 1-.673.388 2.329 2.329 0 0 1-.818.148 1.942 1.942 0 0 1-1.451-.611 2.233 2.233 0 0 1-.607-1.481h5.14zm-5.032-.726a2.286 2.286 0 0 1 .6-1.02 2.01 2.01 0 0 1 1.383-.519 2.2 2.2 0 0 1 .936.208 1.955 1.955 0 0 1 .713.542 2.235 2.235 0 0 1 .379.788z" transform="translate(-93.37 -473.48)" style="fill:#55ad1e"/>
        <path data-name="패스 2" d="M199.789 478.154a1.631 1.631 0 0 1 1.088.548l.068.066.6-.628-.068-.066a2.441 2.441 0 0 0-1.658-.8 1.647 1.647 0 0 0-1.186.457 1.54 1.54 0 0 0-.476 1.152 1.564 1.564 0 0 0 .3.942 2.879 2.879 0 0 0 1.089.819 3.189 3.189 0 0 1 .895.593.759.759 0 0 1 .182.5.779.779 0 0 1-.28.6.97.97 0 0 1-.685.259 1.525 1.525 0 0 1-1.125-.6l-.071-.08-.587.666.047.062a2.084 2.084 0 0 0 .779.621 2.312 2.312 0 0 0 .988.221 1.783 1.783 0 0 0 1.3-.516 1.706 1.706 0 0 0 .522-1.255 1.619 1.619 0 0 0-.306-.96 3.323 3.323 0 0 0-1.15-.848 2.727 2.727 0 0 1-.854-.588.7.7 0 0 1-.191-.461.636.636 0 0 1 .225-.489.78.78 0 0 1 .554-.215z" transform="translate(-190.9 -473.48)" style="fill:#55ad1e"/>
        <path data-name="패스 3" d="M274.133 481.655a2.561 2.561 0 0 1-3.191.676 2.128 2.128 0 0 1-.835-.823 2.257 2.257 0 0 1-.306-1.135 2.119 2.119 0 0 1 .663-1.572 2.313 2.313 0 0 1 1.675-.647 2.361 2.361 0 0 1 1.992.975l.052.07.737-.461-.047-.08a2.524 2.524 0 0 0-.651-.74 3.165 3.165 0 0 0-.928-.466 3.628 3.628 0 0 0-1.123-.177 3.455 3.455 0 0 0-1.683.411 3.07 3.07 0 0 0-1.185 1.147 3.1 3.1 0 0 0-.434 1.6 2.9 2.9 0 0 0 .925 2.162 3.218 3.218 0 0 0 2.314.888 3.674 3.674 0 0 0 1.621-.346 2.856 2.856 0 0 0 1.142-.985l.053-.08-.737-.481z" transform="translate(-256.982 -473.48)" style="fill:#55ad1e"/>
        <path data-name="패스 4" d="M382.5 477.871a3.084 3.084 0 0 0-4.527.006 3.168 3.168 0 0 0 .046 4.287 2.906 2.906 0 0 0 2.225.925 2.761 2.761 0 0 0 2.116-1.039v1.066h.949l.016-.075c.005-.023.013-.057 0-3.033a3.059 3.059 0 0 0-.825-2.137zm-.237 2.448c-.463 1.241-1.165 1.845-2.146 1.845a2.948 2.948 0 0 1-.59-.064 2.518 2.518 0 0 1-1.1-.934 2.248 2.248 0 0 1-.324-1.148 2.188 2.188 0 0 1 .631-1.574 2.029 2.029 0 0 1 1.5-.65 1.981 1.981 0 0 1 1.487.649 2.229 2.229 0 0 1 .38.537 3.887 3.887 0 0 1 .159 1.339z" transform="translate(-357.933 -473.115)" style="fill:#55ad1e"/>
        <path data-name="사각형 2" transform="translate(26.86 1.245)" style="fill:#55ad1e" d="M0 0h.931v8.755H0z"/>
        <g data-name="그룹 2">
            <path data-name="패스 5" d="M562.2 451.927a3.115 3.115 0 0 0 .9.732 2.844 2.844 0 0 0 3.441-.669 3.421 3.421 0 0 0 .889-2.374 3.358 3.358 0 0 0-.894-2.346 2.836 2.836 0 0 0-2.156-.974 3.145 3.145 0 0 0-1.351.3 3.436 3.436 0 0 0-1.174.953 4.574 4.574 0 0 0-.577 1.709v5.936h.921zm.578-3.979a2.065 2.065 0 0 1 2.633-.374 2.264 2.264 0 0 1 .793.875 2.535 2.535 0 0 1 .3 1.2 2.58 2.58 0 0 1-.3 1.2 2.248 2.248 0 0 1-.8.888 2 2 0 0 1-1.072.314 2.1 2.1 0 0 1-1.1-.315 2.13 2.13 0 0 1-.8-.854 2.605 2.605 0 0 1-.28-1.211 2.462 2.462 0 0 1 .624-1.724z" transform="translate(-529.327 -445.193)" style="fill:#55ad1e"/>
            <path data-name="패스 6" d="M666.253 479.389a2.038 2.038 0 0 0-1.077.434 2.9 2.9 0 0 0-1.014 1.353 3.2 3.2 0 0 0-.25.882v3.395h.942v-2.032a8 8 0 0 1 .131-1.792 2.456 2.456 0 0 1 .637-.975.925.925 0 0 1 .629-.309.686.686 0 0 1 .235.043l.073.027.473-.765-.085-.049a1.408 1.408 0 0 0-.694-.212z" transform="translate(-625.113 -475.453)" style="fill:#55ad1e"/>
            <path data-name="패스 7" d="m866.285 455.7-.037-.112-.1.056a1.075 1.075 0 0 1-.539.159.981.981 0 0 1-.424-.1 1.629 1.629 0 0 1-.568-1.408v-2.505h1.358v-.89h-1.363v-2.979h-.931v6.5a2.63 2.63 0 0 0 .3 1.29 1.7 1.7 0 0 0 1.415.994h.064a2.669 2.669 0 0 0 1-.227l.09-.037-.036-.1q-.089-.223-.229-.641z" transform="translate(-811.549 -446.713)" style="fill:#55ad1e"/>
            <g data-name="그룹 1">
                <path data-name="패스 8" d="M722.7 429.757a.7.7 0 0 0-.7.7.687.687 0 0 0 .2.5.673.673 0 0 0 .5.209.7.7 0 1 0 0-1.407z" transform="translate(-679.324 -429.757)" style="fill:#55ad1e"/>
                <path data-name="사각형 3" transform="translate(42.918 4.082)" style="fill:#55ad1e" d="M0 0h.926v5.918H0z"/>
            </g>
            <path data-name="패스 9" d="M768.855 480.638a1.953 1.953 0 0 0-.825-.922 2.409 2.409 0 0 0-1.245-.34h-.09a3.612 3.612 0 0 0-1.435.274 3.335 3.335 0 0 0-.794.643 2.826 2.826 0 0 0-.522 1.492 3.97 3.97 0 0 0-.038.78l.01.609v2.267h.931v-2.194a8.367 8.367 0 0 1 .1-1.566 1.058 1.058 0 0 1 .448-.973 1.865 1.865 0 0 1 1.134-.368 2.137 2.137 0 0 1 1.094.224 1.124 1.124 0 0 1 .474.749 6.588 6.588 0 0 1 .081 1.3v2.826h.921V482.4a4.793 4.793 0 0 0-.244-1.762z" transform="translate(-718.428 -475.441)" style="fill:#55ad1e"/>
        </g>
    </g>
</svg>
